<svg width="500" height="400" viewBox="0 0 500 400" fill="none" xmlns="http://www.w3.org/2000/svg">
  <rect width="500" height="400" fill="#1E3A8A" fill-opacity="0.1"/>
  <circle cx="250" cy="200" r="150" fill="#3B82F6" fill-opacity="0.1"/>
  <circle cx="250" cy="200" r="100" fill="#3B82F6" fill-opacity="0.2"/>
  
  <!-- Document 1 -->
  <rect x="150" y="120" width="80" height="100" rx="4" fill="white"/>
  <rect x="160" y="140" width="60" height="4" rx="2" fill="#D4AF37"/>
  <rect x="160" y="150" width="60" height="4" rx="2" fill="#D4AF37" fill-opacity="0.7"/>
  <rect x="160" y="160" width="40" height="4" rx="2" fill="#D4AF37" fill-opacity="0.5"/>
  <rect x="160" y="180" width="60" height="4" rx="2" fill="#1E3A8A" fill-opacity="0.3"/>
  <rect x="160" y="190" width="60" height="4" rx="2" fill="#1E3A8A" fill-opacity="0.3"/>
  <rect x="160" y="200" width="60" height="4" rx="2" fill="#1E3A8A" fill-opacity="0.3"/>
  
  <!-- Document 2 -->
  <rect x="270" y="120" width="80" height="100" rx="4" fill="white"/>
  <rect x="280" y="140" width="60" height="4" rx="2" fill="#1E3A8A"/>
  <rect x="280" y="150" width="60" height="4" rx="2" fill="#1E3A8A" fill-opacity="0.7"/>
  <rect x="280" y="160" width="40" height="4" rx="2" fill="#1E3A8A" fill-opacity="0.5"/>
  <rect x="280" y="180" width="60" height="4" rx="2" fill="#D4AF37" fill-opacity="0.3"/>
  <rect x="280" y="190" width="60" height="4" rx="2" fill="#D4AF37" fill-opacity="0.3"/>
  <rect x="280" y="200" width="60" height="4" rx="2" fill="#D4AF37" fill-opacity="0.3"/>
  
  <!-- AI Connection Lines -->
  <path d="M190 220L250 280L310 220" stroke="#D4AF37" stroke-width="2" stroke-dasharray="4 4"/>
  
  <!-- AI Node -->
  <circle cx="250" cy="280" r="30" fill="#1E3A8A"/>
  <circle cx="250" cy="280" r="20" fill="#D4AF37"/>
  <path d="M240 275L250 285L260 275" stroke="white" stroke-width="2"/>
  
  <!-- Particles -->
  <circle cx="150" cy="100" r="3" fill="#D4AF37"/>
  <circle cx="350" cy="100" r="3" fill="#D4AF37"/>
  <circle cx="120" cy="200" r="3" fill="#D4AF37"/>
  <circle cx="380" cy="200" r="3" fill="#D4AF37"/>
  <circle cx="150" cy="300" r="3" fill="#D4AF37"/>
  <circle cx="350" cy="300" r="3" fill="#D4AF37"/>
  
  <circle cx="180" cy="80" r="2" fill="white"/>
  <circle cx="320" cy="80" r="2" fill="white"/>
  <circle cx="100" cy="150" r="2" fill="white"/>
  <circle cx="400" cy="150" r="2" fill="white"/>
  <circle cx="180" cy="320" r="2" fill="white"/>
  <circle cx="320" cy="320" r="2" fill="white"/>
</svg>

