<svg width="20" height="20" viewBox="0 0 20 20" fill="none" xmlns="http://www.w3.org/2000/svg">
  <path d="M10 1.80723C12.6506 1.80723 12.9819 1.80723 14.0361 1.80723C15.0904 1.80723 15.6627 2.04819 16.0843 2.2289C16.6566 2.40964 17.0783 2.65061 17.5 3.07229C17.9217 3.49398 18.1627 3.91566 18.3434 4.48795C18.5241 4.90964 18.7048 5.48193 18.7651 6.53614C18.7651 7.59036 18.7651 7.92169 18.7651 10.5723C18.7651 13.2229 18.7651 13.5542 18.7651 14.6084C18.7651 15.6627 18.5241 16.2349 18.3434 16.6566C18.1627 17.2289 17.9217 17.6506 17.5 18.0723C17.0783 18.494 16.6566 18.7349 16.0843 18.9157C15.6627 19.0964 15.0904 19.2771 14.0361 19.3373C12.9819 19.3373 12.6506 19.3373 10 19.3373C7.34939 19.3373 7.01807 19.3373 5.96386 19.3373C4.90964 19.3373 4.33735 19.0964 3.91566 18.9157C3.34337 18.7349 2.92169 18.494 2.5 18.0723C2.07831 17.6506 1.83735 17.2289 1.65663 16.6566C1.47591 16.2349 1.29518 15.6627 1.23494 14.6084C1.23494 13.5542 1.23494 13.2229 1.23494 10.5723C1.23494 7.92169 1.23494 7.59036 1.23494 6.53614C1.23494 5.48193 1.47591 4.90964 1.65663 4.48795C1.83735 3.91566 2.07831 3.49398 2.5 3.07229C2.92169 2.65061 3.34337 2.40964 3.91566 2.2289C4.33735 2.04819 4.90964 1.86747 5.96386 1.80723C7.01807 1.80723 7.34939 1.80723 10 1.80723ZM10 0C7.28916 0 6.95783 0 5.90361 0C4.8494 0 4.09639 0.240965 3.46386 0.481928C2.83133 0.722892 2.2591 1.08434 1.68675 1.65663C1.11446 2.22892 0.753012 2.80121 0.512048 3.43374C0.271084 4.06626 0.0301205 4.81928 0.0301205 5.87349C0.0301205 6.92771 0 7.31928 0 10.0301C0 12.741 0 13.0723 0 14.1265C0 15.1807 0.240964 15.9337 0.481928 16.5663C0.722892 17.1988 1.08434 17.771 1.65663 18.3434C2.22892 18.9157 2.80121 19.2771 3.43374 19.5181C4.06626 19.759 4.81928 20 5.87349 20C6.92771 20 7.31928 20 10.0301 20C12.741 20 13.0723 20 14.1265 20C15.1807 20 15.9337 19.759 16.5663 19.5181C17.1988 19.2771 17.771 18.9157 18.3434 18.3434C18.9157 17.771 19.2771 17.1988 19.5181 16.5663C19.759 15.9337 20 15.1807 20 14.1265C20 13.0723 20 12.6807 20 10.0301C20 7.37952 20 7.04819 20 5.99398C20 4.93976 19.759 4.18675 19.5181 3.55422C19.2771 2.9217 18.9157 2.34939 18.3434 1.77711C17.771 1.20482 17.1988 0.843374 16.5663 0.602409C15.9337 0.361446 15.1807 0.120482 14.1265 0.120482C13.0723 0 12.6807 0 10 0Z" fill="white"/>
  <path d="M10 4.93976C7.16867 4.93976 4.93976 7.16867 4.93976 10C4.93976 12.8313 7.16867 15.0602 10 15.0602C12.8313 15.0602 15.0602 12.8313 15.0602 10C15.0602 7.16867 12.8313 4.93976 10 4.93976ZM10 13.2531C8.19277 13.2531 6.74699 11.8072 6.74699 10C6.74699 8.19277 8.19277 6.74699 10 6.74699C11.8072 6.74699 13.253 8.19277 13.253 10C13.253 11.8072 11.8072 13.2531 10 13.2531Z" fill="white"/>
  <path d="M15.1205 6.02409C15.7831 6.02409 16.3253 5.48193 16.3253 4.81928C16.3253 4.15663 15.7831 3.61446 15.1205 3.61446C14.4578 3.61446 13.9157 4.15663 13.9157 4.81928C13.9157 5.48193 14.4578 6.02409 15.1205 6.02409Z" fill="white"/>
</svg>

