<svg width="30" height="30" viewBox="0 0 30 30" fill="none" xmlns="http://www.w3.org/2000/svg">
  <path d="M25.4983 4.49661C22.7466 1.74328 19.0466 0.25 15.1216 0.25C7.02331 0.25 0.4383 6.83501 0.4383 14.9333C0.4383 17.5583 1.12997 20.1083 2.42997 22.3333L0.333313 29.75L7.92498 27.6833C10.0733 28.875 12.575 29.5 15.1216 29.5H15.135C23.2333 29.5 29.8333 22.915 29.8333 14.8167C29.8333 10.9083 28.25 7.24994 25.4983 4.49661ZM15.1216 27.0417C12.8633 27.0417 10.6633 26.4417 8.75831 25.3167L8.29998 25.0417L3.91664 26.2833L5.17498 22.0167L4.86664 21.5417C3.62498 19.5583 2.97498 17.2833 2.97498 14.9333C2.97498 8.19161 8.37998 2.78661 15.135 2.78661C18.3766 2.78661 21.4216 4.02828 23.6966 6.30328C25.9716 8.57828 27.2133 11.6233 27.2133 14.8167C27.2133 21.5583 21.8083 27.0417 15.1216 27.0417ZM21.8666 18.0417C21.5 17.8583 19.6916 16.9667 19.3583 16.8417C19.025 16.7167 18.7833 16.6583 18.5416 17.025C18.3 17.3917 17.5916 18.225 17.3833 18.4667C17.175 18.7083 16.9666 18.7417 16.6 18.5583C14.3833 17.45 12.9083 16.5833 11.4333 14.0833C11.0416 13.4417 11.8083 13.5 12.5166 12.0833C12.6416 11.8417 12.5833 11.6333 12.4916 11.45C12.4 11.2667 11.6583 9.45828 11.3583 8.72494C11.0583 8.00828 10.7583 8.10828 10.55 8.09161C10.3416 8.07494 10.1 8.07494 9.85831 8.07494C9.61664 8.07494 9.22498 8.16661 8.89164 8.53328C8.55831 8.89994 7.60831 9.79161 7.60831 11.6C7.60831 13.4083 8.92498 15.15 9.10831 15.3917C9.29164 15.6333 11.6416 19.2417 15.2333 20.8417C17.5083 21.8417 18.4166 21.9167 19.5666 21.7333C20.2666 21.625 21.7416 20.8417 22.0416 19.9833C22.3416 19.125 22.3416 18.3917 22.25 18.225C22.1583 18.0583 21.9166 17.9667 21.55 17.7833L21.8666 18.0417Z" fill="white"/>
</svg>

