<svg width="20" height="20" viewBox="0 0 20 20" fill="none" xmlns="http://www.w3.org/2000/svg">
  <path d="M18.125 0H1.875C0.839844 0 0 0.839844 0 1.875V18.125C0 19.1602 0.839844 20 1.875 20H10.7422V12.2656H8.125V9.23828H10.7422V7.01172C10.7422 4.42578 12.2852 3.02734 14.5703 3.02734C15.6641 3.02734 16.6016 3.11328 16.8945 3.15234V5.84766H15.293C14.043 5.84766 13.7891 6.43359 13.7891 7.30469V9.23828H16.7969L16.3867 12.2656H13.7891V20H18.125C19.1602 20 20 19.1602 20 18.125V1.875C20 0.839844 19.1602 0 18.125 0Z" fill="white"/>
</svg>

