<svg width="20" height="20" viewBox="0 0 20 20" fill="none" xmlns="http://www.w3.org/2000/svg">
  <path d="M18.5236 0H1.47639C0.660156 0 0 0.644531 0 1.44141V18.5586C0 19.3555 0.660156 20 1.47639 20H18.5236C19.3398 20 20 19.3555 20 18.5586V1.44141C20 0.644531 19.3398 0 18.5236 0ZM5.93164 17.043H2.96582V7.49609H5.93164V17.043ZM4.44873 6.19531C3.49609 6.19531 2.7334 5.43359 2.7334 4.48438C2.7334 3.53516 3.49609 2.77344 4.44873 2.77344C5.39795 2.77344 6.16064 3.53516 6.16064 4.48438C6.16064 5.43359 5.39795 6.19531 4.44873 6.19531ZM17.043 17.043H14.0771V12.4023C14.0771 11.2969 14.0576 9.87109 12.5322 9.87109C10.9873 9.87109 10.7539 11.0781 10.7539 12.3242V17.043H7.78809V7.49609H10.6367V8.79688H10.6758C11.0742 8.04688 12.043 7.25781 13.4844 7.25781C16.4893 7.25781 17.043 9.23438 17.043 11.8047V17.043Z" fill="white"/>
</svg>

